<?xml version="1.0" encoding="UTF-8" standalone="no"?>
<!-- Created with Inkscape (http://www.inkscape.org/) -->

<svg
   version="1.0"
   width="48"
   height="48"
   id="svg1328"
   sodipodi:docname="gpm-gaming-input-000.svg"
   inkscape:version="1.1.2 (0a00cf5339, 2022-02-04)"
   xmlns:inkscape="http://www.inkscape.org/namespaces/inkscape"
   xmlns:sodipodi="http://sodipodi.sourceforge.net/DTD/sodipodi-0.dtd"
   xmlns:xlink="http://www.w3.org/1999/xlink"
   xmlns="http://www.w3.org/2000/svg"
   xmlns:svg="http://www.w3.org/2000/svg">
  <sodipodi:namedview
     id="namedview50041"
     pagecolor="#ffffff"
     bordercolor="#666666"
     borderopacity="1.0"
     inkscape:pageshadow="2"
     inkscape:pageopacity="0.0"
     inkscape:pagecheckerboard="0"
     showgrid="false"
     inkscape:zoom="14.083333"
     inkscape:cx="23.964497"
     inkscape:cy="24"
     inkscape:window-width="1920"
     inkscape:window-height="1120"
     inkscape:window-x="0"
     inkscape:window-y="28"
     inkscape:window-maximized="1"
     inkscape:current-layer="layer1" />
  <defs
     id="defs3">
    <linearGradient
       id="linearGradient2245">
      <stop
         style="stop-color:#dde1d9;stop-opacity:1"
         offset="0"
         id="stop2247" />
      <stop
         style="stop-color:#cacdc6;stop-opacity:1"
         offset="1"
         id="stop2249" />
    </linearGradient>
    <linearGradient
       x1="18.316999"
       y1="48.643234"
       x2="18.176752"
       y2="52.536461"
       id="linearGradient2981"
       xlink:href="#linearGradient2245"
       gradientUnits="userSpaceOnUse"
       gradientTransform="matrix(1.129863,0,0,0.899111,0,1.555273)" />
    <linearGradient
       x1="8.1134243"
       y1="88.509071"
       x2="8.1134233"
       y2="100.20015"
       id="linearGradient2758"
       xlink:href="#linearGradient2752"
       gradientUnits="userSpaceOnUse"
       gradientTransform="matrix(2.012827,0,0,0.432928,4.489755,2.000006)" />
    <linearGradient
       x1="8.1134243"
       y1="88.509071"
       x2="8.1134233"
       y2="100.20015"
       id="linearGradient1411"
       xlink:href="#linearGradient2752"
       gradientUnits="userSpaceOnUse"
       gradientTransform="matrix(2.247004,0,0,0.432928,0.947581,2.000006)" />
    <linearGradient
       id="linearGradient2752">
      <stop
         style="stop-color:#9d9d9d;stop-opacity:1"
         offset="0"
         id="stop2754" />
      <stop
         style="stop-color:#b9b9b9;stop-opacity:1"
         offset="1"
         id="stop2756" />
    </linearGradient>
    <linearGradient
       x1="8.1134243"
       y1="88.509071"
       x2="8.1134233"
       y2="100.20015"
       id="linearGradient1409"
       xlink:href="#linearGradient2752"
       gradientUnits="userSpaceOnUse"
       gradientTransform="matrix(2.309851,0,0,0.432928,0,2.000006)" />
    <linearGradient
       id="linearGradient2635">
      <stop
         style="stop-color:#f9fff5;stop-opacity:1"
         offset="0"
         id="stop2637" />
      <stop
         style="stop-color:#f9fff5;stop-opacity:0"
         offset="1"
         id="stop2639" />
    </linearGradient>
    <linearGradient
       x1="13.62871"
       y1="101.2846"
       x2="8.6485014"
       y2="74.098007"
       id="linearGradient2741"
       xlink:href="#linearGradient2635"
       gradientUnits="userSpaceOnUse"
       gradientTransform="matrix(2.143634,0,0,0.480712,1,0.574206)" />
    <linearGradient
       id="linearGradient3356">
      <stop
         style="stop-color:#ff4141;stop-opacity:1"
         offset="0"
         id="stop3358" />
      <stop
         style="stop-color:#ff9d9d;stop-opacity:1"
         offset="1"
         id="stop3360" />
    </linearGradient>
    <linearGradient
       id="linearGradient3348">
      <stop
         style="stop-color:#ff4949;stop-opacity:1"
         offset="0"
         id="stop3350" />
      <stop
         style="stop-color:#ffb1b1;stop-opacity:1"
         offset="1"
         id="stop3352" />
    </linearGradient>
    <linearGradient
       id="linearGradient3338">
      <stop
         style="stop-color:#cc0000;stop-opacity:1"
         offset="0"
         id="stop3340" />
      <stop
         style="stop-color:#ff5858;stop-opacity:1"
         offset="0.5"
         id="stop3346" />
      <stop
         style="stop-color:#cc0000;stop-opacity:1"
         offset="1"
         id="stop3342" />
    </linearGradient>
    <linearGradient
       id="linearGradient3247">
      <stop
         style="stop-color:#f0f0f0;stop-opacity:1"
         offset="0"
         id="stop3249" />
      <stop
         style="stop-color:#f0f0f0;stop-opacity:0"
         offset="1"
         id="stop3251" />
    </linearGradient>
    <linearGradient
       id="linearGradient3233">
      <stop
         style="stop-color:#eeeeec;stop-opacity:1"
         offset="0"
         id="stop3235" />
      <stop
         style="stop-color:#a3a398;stop-opacity:1"
         offset="1"
         id="stop3237" />
    </linearGradient>
    <linearGradient
       id="linearGradient6924">
      <stop
         style="stop-color:#ffffff;stop-opacity:1"
         offset="0"
         id="stop6926" />
      <stop
         style="stop-color:#ffffff;stop-opacity:0"
         offset="1"
         id="stop6928" />
    </linearGradient>
    <linearGradient
       id="linearGradient4176">
      <stop
         style="stop-color:#ffffff;stop-opacity:1"
         offset="0"
         id="stop4178" />
      <stop
         style="stop-color:#ffffff;stop-opacity:0"
         offset="1"
         id="stop4180" />
    </linearGradient>
    <linearGradient
       id="linearGradient4134">
      <stop
         style="stop-color:#d6d7d5;stop-opacity:1"
         offset="0"
         id="stop4136" />
      <stop
         style="stop-color:#d1d2d0;stop-opacity:1"
         offset="0.25"
         id="stop4148" />
      <stop
         style="stop-color:#a5a6a3;stop-opacity:1"
         offset="0.5"
         id="stop4142" />
      <stop
         style="stop-color:#dddedc;stop-opacity:1"
         offset="1"
         id="stop4138" />
    </linearGradient>
    <linearGradient
       id="linearGradient4126">
      <stop
         style="stop-color:#000000;stop-opacity:1"
         offset="0"
         id="stop4128" />
      <stop
         style="stop-color:#000000;stop-opacity:0"
         offset="1"
         id="stop4130" />
    </linearGradient>
    <radialGradient
       cx="23.857143"
       cy="40"
       r="17.142857"
       fx="23.857143"
       fy="40"
       id="radialGradient4132"
       xlink:href="#linearGradient4126"
       gradientUnits="userSpaceOnUse"
       gradientTransform="matrix(1,0,0,0.5,0,20)" />
    <linearGradient
       x1="9.3030529"
       y1="26.71875"
       x2="38.826412"
       y2="26.71875"
       id="linearGradient4140"
       xlink:href="#linearGradient4134"
       gradientUnits="userSpaceOnUse"
       gradientTransform="matrix(0.765647,0,0,0.779023,-3.920058,-3.051141)" />
    <linearGradient
       x1="17.160095"
       y1="14.004482"
       x2="37.969398"
       y2="56.575912"
       id="linearGradient4182"
       xlink:href="#linearGradient4176"
       gradientUnits="userSpaceOnUse"
       gradientTransform="matrix(0.747261,0,0,0.780131,-3.474617,-3.056018)" />
    <linearGradient
       x1="16.07143"
       y1="19.5"
       x2="15.785715"
       y2="30"
       id="linearGradient6930"
       xlink:href="#linearGradient6924"
       gradientUnits="userSpaceOnUse"
       gradientTransform="matrix(0.785824,0,0,0.785824,-4.426418,-1.110872)" />
    <radialGradient
       cx="23.857143"
       cy="40"
       r="17.142857"
       fx="23.857143"
       fy="40"
       id="radialGradient6946"
       xlink:href="#linearGradient4126"
       gradientUnits="userSpaceOnUse"
       gradientTransform="matrix(1,0,0,0.5,0,20)" />
    <linearGradient
       x1="24"
       y1="17.245949"
       x2="23.433737"
       y2="8.0476589"
       id="linearGradient3239"
       xlink:href="#linearGradient3233"
       gradientUnits="userSpaceOnUse" />
    <linearGradient
       x1="24"
       y1="17.245949"
       x2="23.433737"
       y2="8.0476589"
       id="linearGradient3243"
       xlink:href="#linearGradient3233"
       gradientUnits="userSpaceOnUse" />
    <linearGradient
       x1="34.244171"
       y1="17.695425"
       x2="34.244171"
       y2="29.91827"
       id="linearGradient3253"
       xlink:href="#linearGradient3247"
       gradientUnits="userSpaceOnUse"
       gradientTransform="matrix(0.785824,0,0,0.785824,-4.234777,-1.761184)" />
    <linearGradient
       x1="24"
       y1="17.245949"
       x2="23.433737"
       y2="8.0476589"
       id="linearGradient3255"
       xlink:href="#linearGradient3233"
       gradientUnits="userSpaceOnUse" />
    <linearGradient
       x1="11.003058"
       y1="33.489445"
       x2="30.452171"
       y2="33.489445"
       id="linearGradient3344"
       xlink:href="#linearGradient3338"
       gradientUnits="userSpaceOnUse"
       gradientTransform="matrix(0.722919,0,0,0.785824,-2.856978,-1.761184)" />
    <linearGradient
       x1="24"
       y1="18.132908"
       x2="24"
       y2="8.0243998"
       id="linearGradient3354"
       xlink:href="#linearGradient3348"
       gradientUnits="userSpaceOnUse" />
    <linearGradient
       x1="24"
       y1="10.396756"
       x2="24"
       y2="20.118456"
       id="linearGradient3362"
       xlink:href="#linearGradient3356"
       gradientUnits="userSpaceOnUse" />
    <linearGradient
       x1="6.8618002"
       y1="27.3535"
       x2="39.192001"
       y2="15.62"
       id="aigrd3"
       gradientUnits="userSpaceOnUse"
       gradientTransform="matrix(0.937963,0,0,0.937963,6.485913,12.6462)">
      <stop
         style="stop-color:#fcfcfc;stop-opacity:1"
         offset="0"
         id="stop3664" />
      <stop
         style="stop-color:#bbbbbb;stop-opacity:1"
         offset="1"
         id="stop3666" />
    </linearGradient>
    <linearGradient
       inkscape:collect="always"
       xlink:href="#aigrd3"
       id="linearGradient2192"
       x1="194.207"
       y1="189.793"
       x2="240.63911"
       y2="338.8504"
       gradientUnits="userSpaceOnUse" />
  </defs>
  <g
     id="layer1">
    <path
       d="M 41 40 A 17.142857 8.5714283 0 1 1  6.7142868,40 A 17.142857 8.5714283 0 1 1  41 40 z"
       transform="matrix(0.831993,0,0,0.904687,-5.111713,-7.837026)"
       style="opacity:1;color:#000000;fill:url(#radialGradient4132);fill-opacity:1;fill-rule:nonzero;stroke:none;stroke-width:1;stroke-linecap:butt;stroke-linejoin:miter;marker:none;marker-start:none;marker-mid:none;marker-end:none;stroke-miterlimit:10;stroke-dasharray:none;stroke-dashoffset:0;stroke-opacity:1;visibility:visible;display:block;overflow:visible"
       id="path3366" />
    <path
       d="M 14.407615,3.8870363 C 8.3900691,3.8870363 3.4971471,6.0702504 3.4971463,8.755934 C 3.4971463,8.948653 3.4971463,26.570144 3.4971463,26.770852 C 3.4971463,29.456536 8.3900681,31.639749 14.407615,31.639749 C 20.425162,31.639749 25.512915,29.456535 25.512913,26.770852 C 25.512913,26.611883 25.512913,8.914902 25.512913,8.755934 C 25.512913,6.0702496 20.425162,3.8870363 14.407615,3.8870363 z "
       style="opacity:1;color:#000000;fill:url(#linearGradient4140);fill-opacity:1;fill-rule:nonzero;stroke:#767973;stroke-width:1.0000006;stroke-linecap:butt;stroke-linejoin:miter;marker:none;marker-start:none;marker-mid:none;marker-end:none;stroke-miterlimit:10;stroke-dasharray:none;stroke-dashoffset:0;stroke-opacity:1;visibility:visible;display:block;overflow:visible"
       id="path3068" />
    <path
       d="M 14.419394,4.5000002 C 8.943644,4.5000002 4.4912611,6.5384211 4.4912604,9.045986 C 4.4912604,9.225924 4.4912604,26.119991 4.4912604,26.307387 C 4.4912604,28.814954 8.943643,30.853373 14.419394,30.853373 C 19.895144,30.853373 24.524816,28.814953 24.524814,26.307387 C 24.524814,26.158963 24.524814,9.194413 24.524814,9.045986 C 24.524814,6.5384203 19.895144,4.5000002 14.419394,4.5000002 z "
       style="opacity:0.5443038;color:#000000;fill:none;fill-opacity:1;fill-rule:nonzero;stroke:url(#linearGradient4182);stroke-width:1.00000036;stroke-linecap:butt;stroke-linejoin:miter;marker:none;marker-start:none;marker-mid:none;marker-end:none;stroke-miterlimit:10;stroke-dasharray:none;stroke-dashoffset:0;stroke-opacity:1;visibility:visible;display:block;overflow:visible"
       id="path4174" />
    <path
       d="M 36.857142 14.071428 A 12.857142 5.5 0 1 1  11.142858,14.071428 A 12.857142 5.5 0 1 1  36.857142 14.071428 z"
       transform="matrix(0.792664,0,0,0.759881,-4.701535,-2.015529)"
       style="opacity:0.467033;color:#000000;fill:#f0f0f0;fill-opacity:1;fill-rule:nonzero;stroke:url(#linearGradient3239);stroke-width:1.28849459;stroke-linecap:butt;stroke-linejoin:miter;marker:none;marker-start:none;marker-mid:none;marker-end:none;stroke-miterlimit:10;stroke-dasharray:none;stroke-dashoffset:0;stroke-opacity:1;visibility:visible;display:block;overflow:visible"
       id="path3364" />
    <path
       d="M 41 40 A 17.142857 8.5714283 0 1 1  6.7142868,40 A 17.142857 8.5714283 0 1 1  41 40 z"
       transform="matrix(0.285592,0,0,0.285592,7.630674,-5.417084)"
       style="opacity:0.30769234;color:#000000;fill:url(#radialGradient6946);fill-opacity:1;fill-rule:nonzero;stroke:none;stroke-width:1;stroke-linecap:butt;stroke-linejoin:miter;marker:none;marker-start:none;marker-mid:none;marker-end:none;stroke-miterlimit:10;stroke-dasharray:none;stroke-dashoffset:0;stroke-opacity:1;visibility:visible;display:block;overflow:visible"
       id="path6944" />
    <path
       d="M 14.695397,2.7062278 C 13.121553,2.7062278 11.056023,3.2674264 11.056023,3.9577853 C 11.056023,4.0073237 11.056023,5.972642 11.056023,6.0242345 C 11.056023,6.7145934 13.121553,7.275792 14.695397,7.275792 C 16.269241,7.275792 18.161208,6.7145934 18.161207,6.0242345 C 18.161207,5.9833716 18.161207,3.9986482 18.161207,3.9577853 C 18.161207,3.2674256 16.269241,2.7062278 14.695397,2.7062278 z "
       style="opacity:1;color:#000000;fill:#9d9e9b;fill-opacity:1;fill-rule:nonzero;stroke:#7d7f7a;stroke-width:1;stroke-linecap:butt;stroke-linejoin:miter;marker:none;marker-start:none;marker-mid:none;marker-end:none;stroke-miterlimit:10;stroke-dasharray:none;stroke-dashoffset:0;stroke-opacity:1;visibility:visible;display:block;overflow:visible"
       id="path3362" />
    <path
       d="M 36.857142 14.071428 A 12.857142 5.5 0 1 1  11.142858,14.071428 A 12.857142 5.5 0 1 1  36.857142 14.071428 z"
       transform="matrix(0.213728,0,0,0.150961,9.493084,2.052715)"
       style="opacity:1;color:#000000;fill:#d3d7cf;fill-opacity:1;fill-rule:nonzero;stroke:url(#linearGradient3255);stroke-width:5.5671978;stroke-linecap:butt;stroke-linejoin:miter;marker:none;marker-start:none;marker-mid:none;marker-end:none;stroke-miterlimit:10;stroke-dasharray:none;stroke-dashoffset:0;stroke-opacity:1;visibility:visible;display:block;overflow:visible"
       id="path6940" />
    <path
       d="M 36.857142 14.071428 A 12.857142 5.5 0 1 1  11.142858,14.071428 A 12.857142 5.5 0 1 1  36.857142 14.071428 z"
       transform="matrix(0.786771,0,0,0.76334,-4.480725,16.01318)"
       style="opacity:0.23626374;color:#000000;fill:#d3d7cf;fill-opacity:1;fill-rule:nonzero;stroke:url(#linearGradient3243);stroke-width:1.29037714;stroke-linecap:butt;stroke-linejoin:miter;marker:none;marker-start:none;marker-mid:none;marker-end:none;stroke-miterlimit:10;stroke-dasharray:none;stroke-dashoffset:0;stroke-opacity:1;visibility:visible;display:block;overflow:visible"
       id="path3241" />
    <path
       d="M 23.945195,7.421181 C 23.073626,6.6470578 22.336664,6.4113672 21.56379,6.0320273 L 21.80193,20.717366 L 23.945195,23.257532 L 23.945195,7.421181 z "
       style="opacity:0.68681317;color:#000000;fill:url(#linearGradient3253);fill-opacity:1;fill-rule:nonzero;stroke:none;stroke-width:0.99999946;stroke-linecap:butt;stroke-linejoin:miter;marker:none;marker-start:none;marker-mid:none;marker-end:none;stroke-miterlimit:10;stroke-dasharray:none;stroke-dashoffset:0;stroke-opacity:1;visibility:visible;display:block;overflow:visible"
       id="path3245" />
    <path
       d="M 14.0362,20.651496 C 9.2619637,20.757367 5.4574317,22.490275 5.4574317,24.602786 C 5.4574317,24.853221 5.4574317,25.8329 5.4574317,26.081631 C 5.4574317,28.262287 9.4909852,30.032919 14.481026,30.032921 C 19.471067,30.032921 23.5258,28.262287 23.525801,26.081631 C 23.525801,25.8329 23.525801,24.853221 23.525801,24.602786 C 23.525801,22.422129 19.471067,20.651496 14.481026,20.651496 C 14.325087,20.651496 14.190207,20.64808 14.0362,20.651496 z "
       style="opacity:0.61538463;color:#000000;fill:url(#linearGradient3344);fill-opacity:1;fill-rule:nonzero;stroke:#a40000;stroke-width:0.99621558;stroke-linecap:butt;stroke-linejoin:miter;marker:none;marker-start:none;marker-mid:none;marker-end:none;stroke-miterlimit:10;stroke-dasharray:none;stroke-dashoffset:0;stroke-opacity:1;visibility:visible;display:block;overflow:visible"
       id="path3275" />
    <path
       d="M 36.857142 14.071428 A 12.857142 5.5 0 1 1  11.142858,14.071428 A 12.857142 5.5 0 1 1  36.857142 14.071428 z"
       transform="matrix(0.702543,0,0,0.718266,-2.369549,14.5004)"
       style="opacity:1;color:#000000;fill:url(#linearGradient3354);fill-opacity:1;fill-rule:nonzero;stroke:url(#linearGradient3362);stroke-width:1.40773511;stroke-linecap:butt;stroke-linejoin:miter;marker:none;marker-start:none;marker-mid:none;marker-end:none;stroke-miterlimit:10;stroke-dasharray:none;stroke-dashoffset:0;stroke-opacity:1;visibility:visible;display:block;overflow:visible"
       id="path3277" />
    <path
       d="M 6.406727,12.304265 L 6.687378,25.494882 L 10.279716,26.505226 L 10.167456,13.37074 C 10.167456,13.37074 11.795233,13.37074 14.433357,13.202349 C 9.223378,13.336716 6.200856,11.892728 4.0492553,10.115184 C 5.162688,11.759266 6.406727,12.304265 6.406727,12.304265 z "
       style="opacity:1;color:#000000;fill:url(#linearGradient6930);fill-opacity:1;fill-rule:nonzero;stroke:none;stroke-width:1;stroke-linecap:butt;stroke-linejoin:miter;marker:none;marker-start:none;marker-mid:none;marker-end:none;stroke-miterlimit:4;stroke-dasharray:none;stroke-dashoffset:0;stroke-opacity:1;visibility:visible;display:block;overflow:visible"
       id="path6922" />
    <g
       id="g43414">
      <path
         d="M 45.699962,22.307475 C 44.580654,19.22261 42.277715,16.571025 39.092229,15.080486 35.906742,13.589947 32.395381,13.52093 29.309799,14.638259"
         style="color:#000000;display:inline;overflow:visible;visibility:visible;opacity:1;fill:none;fill-opacity:1;fill-rule:evenodd;stroke:#babdb6;stroke-width:0.993233;stroke-linecap:round;stroke-linejoin:miter;stroke-miterlimit:4;stroke-dasharray:none;stroke-dashoffset:0;stroke-opacity:1;marker:none;marker-start:none;marker-mid:none;marker-end:none"
         id="path3235" />
      <path
         d="M 41.895224,23.686601 C 41.130402,21.576027 39.558237,19.758899 37.380033,18.739683 35.201829,17.72047 32.799365,17.677805 30.688925,18.442997"
         style="color:#000000;display:inline;overflow:visible;visibility:visible;opacity:1;fill:none;fill-opacity:1;fill-rule:evenodd;stroke:#babdb6;stroke-width:0.993233;stroke-linecap:round;stroke-linejoin:miter;stroke-miterlimit:4;stroke-dasharray:none;stroke-dashoffset:0;stroke-opacity:1;marker:none;marker-start:none;marker-mid:none;marker-end:none"
         id="path3233" />
      <path
         d="M 38.090486,25.065727 C 37.678181,23.928222 36.841915,22.948251 35.667837,22.398882 34.493759,21.849513 33.20555,21.835407 32.068053,22.247737"
         style="color:#000000;display:inline;overflow:visible;visibility:visible;opacity:1;fill:none;fill-opacity:1;fill-rule:evenodd;stroke:#babdb6;stroke-width:0.993233;stroke-linecap:round;stroke-linejoin:miter;stroke-miterlimit:4;stroke-dasharray:none;stroke-dashoffset:0;stroke-opacity:1;marker:none;marker-start:none;marker-mid:none;marker-end:none"
         id="path3227" />
      <g
         id="g1171"
         transform="matrix(0.08746422,0.00584077,-0.00584077,0.08746422,4.1431925,13.401686)">
        <path
           style="fill:url(#linearGradient2192);fill-opacity:1;stroke:#595959;stroke-width:11.1788;stroke-miterlimit:4;stroke-dasharray:none;stroke-opacity:1"
           d="M 406.068,150.068 H 109.444 c -58.325,0 -108.359,45.63 -109.426,103.946 -1.088,59.412 46.748,107.916 105.912,107.916 28.724,0 54.702,-11.499 73.772,-30.073 3.322,-3.235 7.648,-5.237 12.286,-5.237 h 128.044 c 4.626,0 8.937,1.995 12.249,5.224 21.57,21.017 51.988,32.982 85.218,29.484 48.802,-5.138 88.484,-44.561 93.839,-93.34 7.014,-63.874 -42.816,-117.92 -105.27,-117.92 z"
           id="path872" />
        <circle
           style="fill:#d5d5d5;fill-opacity:1;stroke:#8e8e8e;stroke-width:6.68985;stroke-miterlimit:4;stroke-dasharray:none;stroke-opacity:1"
           cx="406.06799"
           cy="255.99899"
           r="88.276001"
           id="circle874" />
        <circle
           style="fill:#d5d5d5;fill-opacity:1;stroke:#8e8e8e;stroke-width:6.68985;stroke-miterlimit:4;stroke-dasharray:none;stroke-opacity:1"
           cx="105.93"
           cy="255.99899"
           r="57.379002"
           id="circle876" />
        <path
           style="fill:#7c7c7c;fill-opacity:1"
           d="m 140.689,241.103 h -14.897 c -2.742,0 -4.966,-2.223 -4.966,-4.966 V 221.24 c 0,-2.742 -2.223,-4.966 -4.966,-4.966 H 95.999 c -2.742,0 -4.966,2.223 -4.966,4.966 v 14.897 c 0,2.742 -2.223,4.966 -4.966,4.966 H 71.172 c -2.742,0 -4.966,2.223 -4.966,4.966 v 19.862 c 0,2.742 2.223,4.966 4.966,4.966 h 14.897 c 2.742,0 4.966,2.223 4.966,4.966 v 14.897 c 0,2.742 2.223,4.966 4.966,4.966 h 19.862 c 2.742,0 4.966,-2.223 4.966,-4.966 v -14.897 c 0,-2.742 2.223,-4.966 4.966,-4.966 h 14.897 c 2.742,0 4.966,-2.223 4.966,-4.966 v -19.862 c -0.003,-2.743 -2.227,-4.966 -4.969,-4.966 z"
           id="path878" />
        <g
           id="g886"
           style="stroke-width:0.994912;stroke-miterlimit:4;stroke-dasharray:none">
          <path
             style="fill:#7c7c7c;fill-opacity:1;stroke-width:0.994912;stroke-miterlimit:4;stroke-dasharray:none"
             d="m 211.867,291.31 c -3.242,0 -6.354,-1.784 -7.905,-4.879 -2.182,-4.362 -0.414,-9.664 3.948,-11.844 l 17.655,-8.828 c 4.362,-2.177 9.664,-0.414 11.844,3.948 2.18,4.362 0.414,9.664 -3.948,11.844 l -17.655,8.828 c -1.266,0.633 -2.612,0.931 -3.939,0.931 z"
             id="path882" />
          <path
             style="fill:#7b7b7c;fill-opacity:1;stroke-width:0.994912;stroke-miterlimit:4;stroke-dasharray:none"
             d="m 264.833,291.31 c -3.242,0 -6.354,-1.784 -7.905,-4.879 -2.182,-4.362 -0.414,-9.664 3.948,-11.844 l 17.655,-8.828 c 4.353,-2.177 9.655,-0.414 11.844,3.948 2.182,4.362 0.414,9.664 -3.948,11.844 l -17.655,8.828 c -1.267,0.633 -2.612,0.931 -3.939,0.931 z"
             id="path884" />
        </g>
        <g
           id="g894"
           style="fill:#c3c3c3;fill-opacity:1;stroke:none;stroke-opacity:1">
          <path
             style="fill:#c3c3c3;fill-opacity:1;stroke:none;stroke-width:0.665118;stroke-opacity:1"
             d="M 273.17718,218.29276 H 220.3349 c -4.86401,0 -8.80683,-3.94348 -8.80683,-8.80682 v 0 c 0,-4.86401 3.94349,-8.80683 8.80683,-8.80683 h 52.84228 c 4.86401,0 8.80683,3.94348 8.80683,8.80683 v 0 c 0,4.86334 -3.94282,8.80682 -8.80683,8.80682 z"
             id="path888" />
          <path
             style="fill:#c3c3c3;fill-opacity:1;stroke:none;stroke-opacity:1"
             d="m 357.526,275.861 c -5.181,0 -10.311,-2.268 -13.793,-6.625 -6.094,-7.616 -4.862,-18.724 2.759,-24.814 l 44.138,-35.31 c 7.604,-6.099 18.724,-4.862 24.81,2.754 6.094,7.616 4.862,18.724 -2.759,24.814 l -44.138,35.31 c -3.25,2.608 -7.147,3.871 -11.017,3.871 z"
             id="path890" />
          <path
             style="fill:#c3c3c3;fill-opacity:1;stroke:none;stroke-opacity:1"
             d="m 410.491,306.758 c -5.181,0 -10.311,-2.268 -13.793,-6.625 -6.094,-7.616 -4.862,-18.724 2.759,-24.814 l 44.138,-35.31 c 7.595,-6.103 18.733,-4.853 24.81,2.754 6.094,7.616 4.862,18.724 -2.759,24.814 l -44.138,35.31 c -3.25,2.607 -7.146,3.871 -11.017,3.871 z"
             id="path892" />
        </g>
        <circle
           style="fill:#7d7d7d;fill-opacity:1;stroke:none"
           cx="357.517"
           cy="258.20599"
           r="17.655001"
           id="circle896" />
        <circle
           style="fill:#7d7d7d;fill-opacity:1;stroke:none"
           cx="401.655"
           cy="222.896"
           r="17.655001"
           id="circle898" />
        <circle
           style="fill:#7d7d7d;fill-opacity:1;stroke:none"
           cx="454.62"
           cy="253.79201"
           r="17.655001"
           id="circle900" />
        <circle
           style="fill:#7d7d7d;fill-opacity:1;stroke:none"
           cx="410.48199"
           cy="289.103"
           r="17.655001"
           id="circle902" />
      </g>
    </g>
  </g>
  <g
     id="layer2" />
</svg>
