<?xml version="1.0" encoding="UTF-8" standalone="no"?>
<!-- Created with Inkscape (http://www.inkscape.org/) -->

<svg
   version="1.0"
   width="48"
   height="48"
   id="svg1328"
   sodipodi:docname="gpm-gaming-input-060.svg"
   inkscape:version="1.1.2 (0a00cf5339, 2022-02-04)"
   xmlns:inkscape="http://www.inkscape.org/namespaces/inkscape"
   xmlns:sodipodi="http://sodipodi.sourceforge.net/DTD/sodipodi-0.dtd"
   xmlns:xlink="http://www.w3.org/1999/xlink"
   xmlns="http://www.w3.org/2000/svg"
   xmlns:svg="http://www.w3.org/2000/svg">
  <sodipodi:namedview
     id="namedview50358"
     pagecolor="#ffffff"
     bordercolor="#666666"
     borderopacity="1.0"
     inkscape:pageshadow="2"
     inkscape:pageopacity="0.0"
     inkscape:pagecheckerboard="0"
     showgrid="false"
     inkscape:zoom="14.083333"
     inkscape:cx="23.964497"
     inkscape:cy="24"
     inkscape:window-width="1920"
     inkscape:window-height="1120"
     inkscape:window-x="0"
     inkscape:window-y="28"
     inkscape:window-maximized="1"
     inkscape:current-layer="layer1" />
  <defs
     id="defs3">
    <linearGradient
       id="linearGradient2245">
      <stop
         style="stop-color:#dde1d9;stop-opacity:1"
         offset="0"
         id="stop2247" />
      <stop
         style="stop-color:#cacdc6;stop-opacity:1"
         offset="1"
         id="stop2249" />
    </linearGradient>
    <linearGradient
       x1="18.316999"
       y1="48.643234"
       x2="18.176752"
       y2="52.536461"
       id="linearGradient2981"
       xlink:href="#linearGradient2245"
       gradientUnits="userSpaceOnUse"
       gradientTransform="matrix(1.129863,0,0,0.899111,0,1.555273)" />
    <linearGradient
       x1="8.1134243"
       y1="88.509071"
       x2="8.1134233"
       y2="100.20015"
       id="linearGradient2758"
       xlink:href="#linearGradient2752"
       gradientUnits="userSpaceOnUse"
       gradientTransform="matrix(2.012827,0,0,0.432928,4.489755,2.000006)" />
    <linearGradient
       x1="8.1134243"
       y1="88.509071"
       x2="8.1134233"
       y2="100.20015"
       id="linearGradient1411"
       xlink:href="#linearGradient2752"
       gradientUnits="userSpaceOnUse"
       gradientTransform="matrix(2.247004,0,0,0.432928,0.947581,2.000006)" />
    <linearGradient
       id="linearGradient2752">
      <stop
         style="stop-color:#9d9d9d;stop-opacity:1"
         offset="0"
         id="stop2754" />
      <stop
         style="stop-color:#b9b9b9;stop-opacity:1"
         offset="1"
         id="stop2756" />
    </linearGradient>
    <linearGradient
       x1="8.1134243"
       y1="88.509071"
       x2="8.1134233"
       y2="100.20015"
       id="linearGradient1409"
       xlink:href="#linearGradient2752"
       gradientUnits="userSpaceOnUse"
       gradientTransform="matrix(2.309851,0,0,0.432928,0,2.000006)" />
    <linearGradient
       id="linearGradient2635">
      <stop
         style="stop-color:#f9fff5;stop-opacity:1"
         offset="0"
         id="stop2637" />
      <stop
         style="stop-color:#f9fff5;stop-opacity:0"
         offset="1"
         id="stop2639" />
    </linearGradient>
    <linearGradient
       x1="13.62871"
       y1="101.2846"
       x2="8.6485014"
       y2="74.098007"
       id="linearGradient2741"
       xlink:href="#linearGradient2635"
       gradientUnits="userSpaceOnUse"
       gradientTransform="matrix(2.143634,0,0,0.480712,1,0.574206)" />
    <linearGradient
       id="linearGradient3247">
      <stop
         style="stop-color:#f0f0f0;stop-opacity:1"
         offset="0"
         id="stop3249" />
      <stop
         style="stop-color:#f0f0f0;stop-opacity:0"
         offset="1"
         id="stop3251" />
    </linearGradient>
    <linearGradient
       id="linearGradient3233">
      <stop
         style="stop-color:#eeeeec;stop-opacity:1"
         offset="0"
         id="stop3235" />
      <stop
         style="stop-color:#a3a398;stop-opacity:1"
         offset="1"
         id="stop3237" />
    </linearGradient>
    <linearGradient
       id="linearGradient6924">
      <stop
         style="stop-color:#ffffff;stop-opacity:1"
         offset="0"
         id="stop6926" />
      <stop
         style="stop-color:#ffffff;stop-opacity:0"
         offset="1"
         id="stop6928" />
    </linearGradient>
    <linearGradient
       id="linearGradient4176">
      <stop
         style="stop-color:#ffffff;stop-opacity:1"
         offset="0"
         id="stop4178" />
      <stop
         style="stop-color:#ffffff;stop-opacity:0"
         offset="1"
         id="stop4180" />
    </linearGradient>
    <linearGradient
       id="linearGradient4134">
      <stop
         style="stop-color:#d6d7d5;stop-opacity:1"
         offset="0"
         id="stop4136" />
      <stop
         style="stop-color:#d1d2d0;stop-opacity:1"
         offset="0.25"
         id="stop4148" />
      <stop
         style="stop-color:#a5a6a3;stop-opacity:1"
         offset="0.5"
         id="stop4142" />
      <stop
         style="stop-color:#dddedc;stop-opacity:1"
         offset="1"
         id="stop4138" />
    </linearGradient>
    <linearGradient
       id="linearGradient4126">
      <stop
         style="stop-color:#000000;stop-opacity:1"
         offset="0"
         id="stop4128" />
      <stop
         style="stop-color:#000000;stop-opacity:0"
         offset="1"
         id="stop4130" />
    </linearGradient>
    <radialGradient
       cx="23.857143"
       cy="40"
       r="17.142857"
       fx="23.857143"
       fy="40"
       id="radialGradient4132"
       xlink:href="#linearGradient4126"
       gradientUnits="userSpaceOnUse"
       gradientTransform="matrix(1,0,0,0.5,0,20)" />
    <linearGradient
       x1="24"
       y1="17.245949"
       x2="23.433737"
       y2="8.0476589"
       id="linearGradient4230"
       xlink:href="#linearGradient3233"
       gradientUnits="userSpaceOnUse" />
    <linearGradient
       x1="21.486856"
       y1="25.114395"
       x2="21.756248"
       y2="5.5616603"
       id="linearGradient3266"
       xlink:href="#linearGradient3260"
       gradientUnits="userSpaceOnUse" />
    <linearGradient
       x1="25.698481"
       y1="11.170371"
       x2="25.573168"
       y2="20.118456"
       id="linearGradient3821"
       xlink:href="#linearGradient3815"
       gradientUnits="userSpaceOnUse" />
    <linearGradient
       x1="11.003058"
       y1="32.489445"
       x2="32.396713"
       y2="32.489445"
       id="linearGradient3811"
       xlink:href="#linearGradient3805"
       gradientUnits="userSpaceOnUse"
       gradientTransform="matrix(0.989992,0,0,1,0.971538,-1.949365)" />
    <linearGradient
       id="linearGradient3805">
      <stop
         style="stop-color:#284e7f;stop-opacity:1"
         offset="0"
         id="stop3807" />
      <stop
         style="stop-color:#6694cf;stop-opacity:1"
         offset="0.5"
         id="stop3813" />
      <stop
         style="stop-color:#234570;stop-opacity:1"
         offset="1"
         id="stop3809" />
    </linearGradient>
    <linearGradient
       id="linearGradient3815">
      <stop
         style="stop-color:#204a87;stop-opacity:1"
         offset="0"
         id="stop3817" />
      <stop
         style="stop-color:#98b8e7;stop-opacity:1"
         offset="1"
         id="stop3819" />
    </linearGradient>
    <linearGradient
       id="linearGradient3260">
      <stop
         style="stop-color:#3465a4;stop-opacity:1"
         offset="0"
         id="stop3262" />
      <stop
         style="stop-color:#8fb1dc;stop-opacity:1"
         offset="1"
         id="stop3264" />
    </linearGradient>
    <radialGradient
       cx="23.857143"
       cy="40"
       r="17.142857"
       fx="23.857143"
       fy="40"
       id="radialGradient2174"
       xlink:href="#linearGradient4126"
       gradientUnits="userSpaceOnUse"
       gradientTransform="matrix(1,0,0,0.5,0,20)" />
    <linearGradient
       x1="9.3030529"
       y1="26.71875"
       x2="38.826412"
       y2="26.71875"
       id="linearGradient2176"
       xlink:href="#linearGradient4134"
       gradientUnits="userSpaceOnUse"
       gradientTransform="matrix(0.765647,0,0,0.779023,-3.920058,-3.051141)" />
    <linearGradient
       x1="17.160095"
       y1="14.004482"
       x2="37.969398"
       y2="56.575912"
       id="linearGradient2178"
       xlink:href="#linearGradient4176"
       gradientUnits="userSpaceOnUse"
       gradientTransform="matrix(0.747261,0,0,0.780131,-3.474617,-3.056018)" />
    <linearGradient
       x1="34.244171"
       y1="17.695425"
       x2="34.244171"
       y2="29.91827"
       id="linearGradient2180"
       xlink:href="#linearGradient3247"
       gradientUnits="userSpaceOnUse"
       gradientTransform="matrix(0.785824,0,0,0.785824,-4.234777,-1.761184)" />
    <radialGradient
       cx="23.857143"
       cy="40"
       r="17.142857"
       fx="23.857143"
       fy="40"
       id="radialGradient2182"
       xlink:href="#linearGradient4126"
       gradientUnits="userSpaceOnUse"
       gradientTransform="matrix(1,0,0,0.5,0,20)" />
    <linearGradient
       x1="16.07143"
       y1="19.5"
       x2="15.785715"
       y2="30"
       id="linearGradient2184"
       xlink:href="#linearGradient6924"
       gradientUnits="userSpaceOnUse"
       gradientTransform="matrix(0.785824,0,0,0.785824,-4.426418,-1.110872)" />
    <linearGradient
       x1="24"
       y1="17.245949"
       x2="23.433737"
       y2="8.0476589"
       id="linearGradient2186"
       xlink:href="#linearGradient3233"
       gradientUnits="userSpaceOnUse" />
    <linearGradient
       x1="6.8618002"
       y1="27.3535"
       x2="39.192001"
       y2="15.62"
       id="aigrd3"
       gradientUnits="userSpaceOnUse"
       gradientTransform="matrix(0.937963,0,0,0.937963,6.485913,12.6462)">
      <stop
         style="stop-color:#fcfcfc;stop-opacity:1"
         offset="0"
         id="stop3664" />
      <stop
         style="stop-color:#bbbbbb;stop-opacity:1"
         offset="1"
         id="stop3666" />
    </linearGradient>
    <linearGradient
       inkscape:collect="always"
       xlink:href="#aigrd3"
       id="linearGradient2192"
       x1="194.207"
       y1="189.793"
       x2="240.63911"
       y2="338.8504"
       gradientUnits="userSpaceOnUse" />
  </defs>
  <g
     id="layer1">
    <path
       d="M 41 40 A 17.142857 8.5714283 0 1 1  6.7142868,40 A 17.142857 8.5714283 0 1 1  41 40 z"
       transform="matrix(0.831993,0,0,0.904687,-5.111713,-7.837026)"
       style="opacity:1;color:#000000;fill:url(#radialGradient4132);fill-opacity:1;fill-rule:nonzero;stroke:none;stroke-width:1;stroke-linecap:butt;stroke-linejoin:miter;marker:none;marker-start:none;marker-mid:none;marker-end:none;stroke-miterlimit:10;stroke-dasharray:none;stroke-dashoffset:0;stroke-opacity:1;visibility:visible;display:block;overflow:visible"
       id="path3366" />
    <g
       transform="matrix(0.768432,0,0,0.768432,-3.86059,-7.849e-2)"
       id="g2145">
      <g
         id="g2147">
        <path
           d="M 41 40 A 17.142857 8.5714283 0 1 1  6.7142868,40 A 17.142857 8.5714283 0 1 1  41 40 z"
           transform="matrix(1.05,0,0,1.167351,-1.05,-13.69991)"
           style="opacity:1;color:#000000;fill:url(#radialGradient2174);fill-opacity:1;fill-rule:nonzero;stroke:none;stroke-width:1;stroke-linecap:butt;stroke-linejoin:miter;marker:none;marker-start:none;marker-mid:none;marker-end:none;stroke-miterlimit:10;stroke-dasharray:none;stroke-dashoffset:0;stroke-opacity:1;visibility:visible;display:block;overflow:visible"
           id="path2149" />
        <path
           d="M 24.070833,5.0744743 C 16.126886,5.0744743 9.66759,7.8527224 9.667589,11.270388 C 9.667589,11.515632 9.667589,33.939854 9.667589,34.195264 C 9.667589,37.61293 16.126885,40.391177 24.070833,40.391177 C 32.014781,40.391177 38.73128,37.612929 38.731278,34.195264 C 38.731278,33.992969 38.731278,11.472683 38.731278,11.270388 C 38.731278,7.8527214 32.01478,5.0744743 24.070833,5.0744743 z "
           style="opacity:1;color:#000000;fill:url(#linearGradient2176);fill-opacity:1;fill-rule:nonzero;stroke:#767973;stroke-width:1.30135167;stroke-linecap:butt;stroke-linejoin:miter;marker:none;marker-start:none;marker-mid:none;marker-end:none;stroke-miterlimit:10;stroke-dasharray:none;stroke-dashoffset:0;stroke-opacity:1;visibility:visible;display:block;overflow:visible"
           id="path2151" />
        <path
           d="M 23.514787,14.946876 C 16.905361,15.081602 11.638389,17.286814 11.638389,19.975089 C 11.638389,20.29378 11.638389,33.16547 11.638389,33.481993 C 11.638389,36.256986 17.222416,38.510203 24.130599,38.510205 C 31.038781,38.510205 36.652133,36.256986 36.652134,33.481993 C 36.652134,33.16547 36.652134,20.29378 36.652134,19.975089 C 36.652134,17.200095 31.038781,14.946877 24.130599,14.946876 C 23.914719,14.946876 23.727993,14.94253 23.514787,14.946876 z "
           style="opacity:0.79120878;color:#000000;fill:url(#linearGradient3811);fill-opacity:1;fill-rule:nonzero;stroke:#204a87;stroke-width:1.29642594;stroke-linecap:butt;stroke-linejoin:miter;marker:none;marker-start:none;marker-mid:none;marker-end:none;stroke-miterlimit:10;stroke-dasharray:none;stroke-dashoffset:0;stroke-opacity:1;visibility:visible;display:block;overflow:visible"
           id="path2153" />
        <path
           d="M 24.079549,5.8545012 C 16.672988,5.8545012 10.650645,8.4484929 10.650644,11.639494 C 10.650644,11.868474 10.650644,33.367011 10.650644,33.605482 C 10.650644,36.796485 16.672987,39.390475 24.079549,39.390475 C 31.486109,39.390475 37.748255,36.796484 37.748253,33.605482 C 37.748253,33.416605 37.748253,11.828374 37.748253,11.639494 C 37.748253,8.4484919 31.486108,5.8545012 24.079549,5.8545012 z "
           style="opacity:0.5443038;color:#000000;fill:none;fill-opacity:1;fill-rule:nonzero;stroke:url(#linearGradient2178);stroke-width:1.30135179;stroke-linecap:butt;stroke-linejoin:miter;marker:none;marker-start:none;marker-mid:none;marker-end:none;stroke-miterlimit:10;stroke-dasharray:none;stroke-dashoffset:0;stroke-opacity:1;visibility:visible;display:block;overflow:visible"
           id="path2155" />
        <path
           d="M 36.857142 14.071428 A 12.857142 5.5 0 1 1  11.142858,14.071428 A 12.857142 5.5 0 1 1  36.857142 14.071428 z"
           transform="matrix(0.972641,0,0,0.865862,0.796499,7.150163)"
           style="opacity:1;color:#000000;fill:url(#linearGradient3266);fill-opacity:1;fill-rule:nonzero;stroke:url(#linearGradient3821);stroke-width:1.4180578;stroke-linecap:butt;stroke-linejoin:miter;marker:none;marker-start:none;marker-mid:none;marker-end:none;stroke-miterlimit:10;stroke-dasharray:none;stroke-dashoffset:0;stroke-opacity:1;visibility:visible;display:block;overflow:visible"
           id="path2157" />
        <path
           d="M 36.121972,9.5718499 C 35.00093,8.5867399 34.053023,8.2868119 33.058925,7.804083 L 33.365229,26.491906 L 36.121972,29.724393 L 36.121972,9.5718499 z "
           style="opacity:1;color:#000000;fill:url(#linearGradient2180);fill-opacity:1;fill-rule:nonzero;stroke:none;stroke-width:0.99999946;stroke-linecap:butt;stroke-linejoin:miter;marker:none;marker-start:none;marker-mid:none;marker-end:none;stroke-miterlimit:10;stroke-dasharray:none;stroke-dashoffset:0;stroke-opacity:1;visibility:visible;display:block;overflow:visible"
           id="path2159" />
        <path
           d="M 36.857142 14.071428 A 12.857142 5.5 0 1 1  11.142858,14.071428 A 12.857142 5.5 0 1 1  36.857142 14.071428 z"
           transform="matrix(1.048446,0,0,0.964345,-1.028695,-2.468578)"
           style="opacity:0.467033;color:#000000;fill:#f0f0f0;fill-opacity:1;fill-rule:nonzero;stroke:url(#linearGradient4230);stroke-width:1.29421115;stroke-linecap:butt;stroke-linejoin:miter;marker:none;marker-start:none;marker-mid:none;marker-end:none;stroke-miterlimit:10;stroke-dasharray:none;stroke-dashoffset:0;stroke-opacity:1;visibility:visible;display:block;overflow:visible"
           id="path2161" />
        <path
           d="M 41 40 A 17.142857 8.5714283 0 1 1  6.7142868,40 A 17.142857 8.5714283 0 1 1  41 40 z"
           transform="matrix(0.367338,0,0,0.36343,15.13767,-6.76548)"
           style="opacity:0.30769234;color:#000000;fill:url(#radialGradient2182);fill-opacity:1;fill-rule:nonzero;stroke:none;stroke-width:1;stroke-linecap:butt;stroke-linejoin:miter;marker:none;marker-start:none;marker-mid:none;marker-end:none;stroke-miterlimit:10;stroke-dasharray:none;stroke-dashoffset:0;stroke-opacity:1;visibility:visible;display:block;overflow:visible"
           id="path2163" />
        <path
           d="M 24.224554,3.5718369 C 22.200222,3.5718369 19.543466,4.2859899 19.543466,5.1645059 C 19.543466,5.2275459 19.543466,7.7285109 19.543466,7.7941649 C 19.543466,8.6726809 22.200222,9.3868339 24.224554,9.3868339 C 26.248887,9.3868339 28.6824,8.6726809 28.682399,7.7941649 C 28.682399,7.7421649 28.682399,5.2165059 28.682399,5.1645059 C 28.682399,4.2859889 26.248887,3.5718369 24.224554,3.5718369 z "
           style="opacity:1;color:#000000;fill:#9d9e9b;fill-opacity:1;fill-rule:nonzero;stroke:#7d7f7a;stroke-width:1.30135155;stroke-linecap:butt;stroke-linejoin:miter;marker:none;marker-start:none;marker-mid:none;marker-end:none;stroke-miterlimit:10;stroke-dasharray:none;stroke-dashoffset:0;stroke-opacity:1;visibility:visible;display:block;overflow:visible"
           id="path2165" />
        <path
           d="M 13.809878,15.815405 L 14.170861,32.60112 L 18.791451,33.886834 L 18.647058,17.172548 C 18.647058,17.172548 20.606753,17.08416 24,16.869874 C 17.432752,16.819891 13.143054,15.291704 10.777615,13.029691 C 12.209752,15.121867 13.809878,15.815405 13.809878,15.815405 z "
           style="opacity:0.58241763;color:#000000;fill:url(#linearGradient2184);fill-opacity:1;fill-rule:nonzero;stroke:none;stroke-width:1;stroke-linecap:butt;stroke-linejoin:miter;marker:none;marker-start:none;marker-mid:none;marker-end:none;stroke-miterlimit:4;stroke-dasharray:none;stroke-dashoffset:0;stroke-opacity:1;visibility:visible;display:block;overflow:visible"
           id="path2167" />
        <path
           d="M 36.857142 14.071428 A 12.857142 5.5 0 1 1  11.142858,14.071428 A 12.857142 5.5 0 1 1  36.857142 14.071428 z"
           transform="matrix(0.274904,0,0,0.192106,17.53316,2.740211)"
           style="opacity:1;color:#000000;fill:#d3d7cf;fill-opacity:1;fill-rule:nonzero;stroke:url(#linearGradient2186);stroke-width:5.66283321;stroke-linecap:butt;stroke-linejoin:miter;marker:none;marker-start:none;marker-mid:none;marker-end:none;stroke-miterlimit:10;stroke-dasharray:none;stroke-dashoffset:0;stroke-opacity:1;visibility:visible;display:block;overflow:visible"
           id="path2169" />
        <g
           transform="translate(-53.99282,-31.64138)"
           id="g4438" />
      </g>
      <g
         id="g2172" />
    </g>
    <g
       id="g43414">
      <path
         d="M 45.699962,22.307475 C 44.580654,19.22261 42.277715,16.571025 39.092229,15.080486 35.906742,13.589947 32.395381,13.52093 29.309799,14.638259"
         style="color:#000000;display:inline;overflow:visible;visibility:visible;opacity:1;fill:none;fill-opacity:1;fill-rule:evenodd;stroke:#babdb6;stroke-width:0.993233;stroke-linecap:round;stroke-linejoin:miter;stroke-miterlimit:4;stroke-dasharray:none;stroke-dashoffset:0;stroke-opacity:1;marker:none;marker-start:none;marker-mid:none;marker-end:none"
         id="path3235" />
      <path
         d="M 41.895224,23.686601 C 41.130402,21.576027 39.558237,19.758899 37.380033,18.739683 35.201829,17.72047 32.799365,17.677805 30.688925,18.442997"
         style="color:#000000;display:inline;overflow:visible;visibility:visible;opacity:1;fill:none;fill-opacity:1;fill-rule:evenodd;stroke:#babdb6;stroke-width:0.993233;stroke-linecap:round;stroke-linejoin:miter;stroke-miterlimit:4;stroke-dasharray:none;stroke-dashoffset:0;stroke-opacity:1;marker:none;marker-start:none;marker-mid:none;marker-end:none"
         id="path3233" />
      <path
         d="M 38.090486,25.065727 C 37.678181,23.928222 36.841915,22.948251 35.667837,22.398882 34.493759,21.849513 33.20555,21.835407 32.068053,22.247737"
         style="color:#000000;display:inline;overflow:visible;visibility:visible;opacity:1;fill:none;fill-opacity:1;fill-rule:evenodd;stroke:#babdb6;stroke-width:0.993233;stroke-linecap:round;stroke-linejoin:miter;stroke-miterlimit:4;stroke-dasharray:none;stroke-dashoffset:0;stroke-opacity:1;marker:none;marker-start:none;marker-mid:none;marker-end:none"
         id="path3227" />
      <g
         id="g1171"
         transform="matrix(0.08746422,0.00584077,-0.00584077,0.08746422,4.1431925,13.401686)">
        <path
           style="fill:url(#linearGradient2192);fill-opacity:1;stroke:#595959;stroke-width:11.1788;stroke-miterlimit:4;stroke-dasharray:none;stroke-opacity:1"
           d="M 406.068,150.068 H 109.444 c -58.325,0 -108.359,45.63 -109.426,103.946 -1.088,59.412 46.748,107.916 105.912,107.916 28.724,0 54.702,-11.499 73.772,-30.073 3.322,-3.235 7.648,-5.237 12.286,-5.237 h 128.044 c 4.626,0 8.937,1.995 12.249,5.224 21.57,21.017 51.988,32.982 85.218,29.484 48.802,-5.138 88.484,-44.561 93.839,-93.34 7.014,-63.874 -42.816,-117.92 -105.27,-117.92 z"
           id="path872" />
        <circle
           style="fill:#d5d5d5;fill-opacity:1;stroke:#8e8e8e;stroke-width:6.68985;stroke-miterlimit:4;stroke-dasharray:none;stroke-opacity:1"
           cx="406.06799"
           cy="255.99899"
           r="88.276001"
           id="circle874" />
        <circle
           style="fill:#d5d5d5;fill-opacity:1;stroke:#8e8e8e;stroke-width:6.68985;stroke-miterlimit:4;stroke-dasharray:none;stroke-opacity:1"
           cx="105.93"
           cy="255.99899"
           r="57.379002"
           id="circle876" />
        <path
           style="fill:#7c7c7c;fill-opacity:1"
           d="m 140.689,241.103 h -14.897 c -2.742,0 -4.966,-2.223 -4.966,-4.966 V 221.24 c 0,-2.742 -2.223,-4.966 -4.966,-4.966 H 95.999 c -2.742,0 -4.966,2.223 -4.966,4.966 v 14.897 c 0,2.742 -2.223,4.966 -4.966,4.966 H 71.172 c -2.742,0 -4.966,2.223 -4.966,4.966 v 19.862 c 0,2.742 2.223,4.966 4.966,4.966 h 14.897 c 2.742,0 4.966,2.223 4.966,4.966 v 14.897 c 0,2.742 2.223,4.966 4.966,4.966 h 19.862 c 2.742,0 4.966,-2.223 4.966,-4.966 v -14.897 c 0,-2.742 2.223,-4.966 4.966,-4.966 h 14.897 c 2.742,0 4.966,-2.223 4.966,-4.966 v -19.862 c -0.003,-2.743 -2.227,-4.966 -4.969,-4.966 z"
           id="path878" />
        <g
           id="g886"
           style="stroke-width:0.994912;stroke-miterlimit:4;stroke-dasharray:none">
          <path
             style="fill:#7c7c7c;fill-opacity:1;stroke-width:0.994912;stroke-miterlimit:4;stroke-dasharray:none"
             d="m 211.867,291.31 c -3.242,0 -6.354,-1.784 -7.905,-4.879 -2.182,-4.362 -0.414,-9.664 3.948,-11.844 l 17.655,-8.828 c 4.362,-2.177 9.664,-0.414 11.844,3.948 2.18,4.362 0.414,9.664 -3.948,11.844 l -17.655,8.828 c -1.266,0.633 -2.612,0.931 -3.939,0.931 z"
             id="path882" />
          <path
             style="fill:#7b7b7c;fill-opacity:1;stroke-width:0.994912;stroke-miterlimit:4;stroke-dasharray:none"
             d="m 264.833,291.31 c -3.242,0 -6.354,-1.784 -7.905,-4.879 -2.182,-4.362 -0.414,-9.664 3.948,-11.844 l 17.655,-8.828 c 4.353,-2.177 9.655,-0.414 11.844,3.948 2.182,4.362 0.414,9.664 -3.948,11.844 l -17.655,8.828 c -1.267,0.633 -2.612,0.931 -3.939,0.931 z"
             id="path884" />
        </g>
        <g
           id="g894"
           style="fill:#c3c3c3;fill-opacity:1;stroke:none;stroke-opacity:1">
          <path
             style="fill:#c3c3c3;fill-opacity:1;stroke:none;stroke-width:0.665118;stroke-opacity:1"
             d="M 273.17718,218.29276 H 220.3349 c -4.86401,0 -8.80683,-3.94348 -8.80683,-8.80682 v 0 c 0,-4.86401 3.94349,-8.80683 8.80683,-8.80683 h 52.84228 c 4.86401,0 8.80683,3.94348 8.80683,8.80683 v 0 c 0,4.86334 -3.94282,8.80682 -8.80683,8.80682 z"
             id="path888" />
          <path
             style="fill:#c3c3c3;fill-opacity:1;stroke:none;stroke-opacity:1"
             d="m 357.526,275.861 c -5.181,0 -10.311,-2.268 -13.793,-6.625 -6.094,-7.616 -4.862,-18.724 2.759,-24.814 l 44.138,-35.31 c 7.604,-6.099 18.724,-4.862 24.81,2.754 6.094,7.616 4.862,18.724 -2.759,24.814 l -44.138,35.31 c -3.25,2.608 -7.147,3.871 -11.017,3.871 z"
             id="path890" />
          <path
             style="fill:#c3c3c3;fill-opacity:1;stroke:none;stroke-opacity:1"
             d="m 410.491,306.758 c -5.181,0 -10.311,-2.268 -13.793,-6.625 -6.094,-7.616 -4.862,-18.724 2.759,-24.814 l 44.138,-35.31 c 7.595,-6.103 18.733,-4.853 24.81,2.754 6.094,7.616 4.862,18.724 -2.759,24.814 l -44.138,35.31 c -3.25,2.607 -7.146,3.871 -11.017,3.871 z"
             id="path892" />
        </g>
        <circle
           style="fill:#7d7d7d;fill-opacity:1;stroke:none"
           cx="357.517"
           cy="258.20599"
           r="17.655001"
           id="circle896" />
        <circle
           style="fill:#7d7d7d;fill-opacity:1;stroke:none"
           cx="401.655"
           cy="222.896"
           r="17.655001"
           id="circle898" />
        <circle
           style="fill:#7d7d7d;fill-opacity:1;stroke:none"
           cx="454.62"
           cy="253.79201"
           r="17.655001"
           id="circle900" />
        <circle
           style="fill:#7d7d7d;fill-opacity:1;stroke:none"
           cx="410.48199"
           cy="289.103"
           r="17.655001"
           id="circle902" />
      </g>
    </g>
  </g>
  <g
     id="layer2" />
</svg>
